solid Glass_tabs
facet normal -0.9659258262890608 -0.258819045102549 0.0
  outer loop
    vertex 1.642073904691404 0.4399923766742628 3.999999904632567
    vertex 1.6999999999999997 -1.127986593019159e-14 0.0
    vertex 1.6999999999999997 -1.127986593019159e-14 3.999999904632567
  endloop
endfacet
facet normal -1.0 -6.219954707161557e-15 0.0
  outer loop
    vertex 1.6999999999999997 -1.127986593019159e-14 0.0
    vertex 1.642073904691404 0.4399923766742628 3.999999904632567
    vertex 1.642073904691404 0.4399923766742628 0.0
  endloop
endfacet
facet normal -0.25881904510254305 0.9659258262890624 0.0
  outer loop
    vertex 0.4399923766742853 -1.6420739046914068 3.999999904632567
    vertex 0.8500000000000095 -1.4722431864335472 0.0
    vertex 0.4399923766742853 -1.6420739046914068 0.0
  endloop
endfacet
facet normal -0.5000000000000002 0.8660254037844385 0.0
  outer loop
    vertex 0.8500000000000095 -1.4722431864335472 0.0
    vertex 0.4399923766742853 -1.6420739046914068 3.999999904632567
    vertex 0.8500000000000095 -1.4722431864335472 3.999999904632567
  endloop
endfacet
facet normal 0.2588190451025543 0.9659258262890594 0.0
  outer loop
    vertex -0.4399923766742853 -1.6420739046914068 3.999999904632567
    vertex 0.0 -1.700000000000025 0.0
    vertex -0.4399923766742853 -1.6420739046914068 0.0
  endloop
endfacet
facet normal 0.0 1.0 0.0
  outer loop
    vertex 0.0 -1.700000000000025 0.0
    vertex -0.4399923766742853 -1.6420739046914068 3.999999904632567
    vertex 0.0 -1.700000000000025 3.999999904632567
  endloop
endfacet
facet normal 0.49999999999998895 0.8660254037844451 0.0
  outer loop
    vertex -0.8500000000000097 -1.472243186433536 3.999999904632567
    vertex -0.4399923766742853 -1.6420739046914068 0.0
    vertex -0.8500000000000097 -1.472243186433536 0.0
  endloop
endfacet
facet normal 0.2588190451025543 0.9659258262890594 0.0
  outer loop
    vertex -0.4399923766742853 -1.6420739046914068 0.0
    vertex -0.8500000000000097 -1.472243186433536 3.999999904632567
    vertex -0.4399923766742853 -1.6420739046914068 3.999999904632567
  endloop
endfacet
facet normal 0.7071067811865569 0.707106781186538 0.0
  outer loop
    vertex -1.2020815280171384 -1.2020815280171326 3.999999904632567
    vertex -0.8500000000000097 -1.472243186433536 0.0
    vertex -1.2020815280171384 -1.2020815280171326 0.0
  endloop
endfacet
facet normal 0.49999999999998895 0.8660254037844451 0.0
  outer loop
    vertex -0.8500000000000097 -1.472243186433536 0.0
    vertex -1.2020815280171384 -1.2020815280171326 3.999999904632567
    vertex -0.8500000000000097 -1.472243186433536 3.999999904632567
  endloop
endfacet
facet normal 0.0 1.0 0.0
  outer loop
    vertex 0.0 -1.700000000000025 3.999999904632567
    vertex 0.4399923766742853 -1.6420739046914068 0.0
    vertex 0.0 -1.700000000000025 0.0
  endloop
endfacet
facet normal -0.25881904510254305 0.9659258262890624 0.0
  outer loop
    vertex 0.4399923766742853 -1.6420739046914068 0.0
    vertex 0.0 -1.700000000000025 3.999999904632567
    vertex 0.4399923766742853 -1.6420739046914068 3.999999904632567
  endloop
endfacet
facet normal -0.7071067811865579 -0.7071067811865371 0.0
  outer loop
    vertex 1.2020815280171169 1.202081528017128 3.999999904632567
    vertex 1.4722431864335201 0.8499999999999766 0.0
    vertex 1.4722431864335201 0.8499999999999766 3.999999904632567
  endloop
endfacet
facet normal -0.8660254037844438 -0.499999999999991 0.0
  outer loop
    vertex 1.4722431864335201 0.8499999999999766 0.0
    vertex 1.2020815280171169 1.202081528017128 3.999999904632567
    vertex 1.2020815280171169 1.202081528017128 0.0
  endloop
endfacet
facet normal -0.5000000000000002 0.8660254037844385 0.0
  outer loop
    vertex 0.8500000000000095 -1.4722431864335472 3.999999904632567
    vertex 1.2020815280171169 -1.2020815280171326 0.0
    vertex 0.8500000000000095 -1.4722431864335472 0.0
  endloop
endfacet
facet normal -0.7071067811865547 0.7071067811865404 0.0
  outer loop
    vertex 1.2020815280171169 -1.2020815280171326 0.0
    vertex 0.8500000000000095 -1.4722431864335472 3.999999904632567
    vertex 1.2020815280171169 -1.2020815280171326 3.999999904632567
  endloop
endfacet
facet normal 0.9659258262890641 -0.2588190451025369 0.0
  outer loop
    vertex -1.6420739046914237 0.4399923766743079 0.0
    vertex -1.7000000000000195 -1.127986593019159e-14 3.999999904632567
    vertex -1.7000000000000195 -1.127986593019159e-14 0.0
  endloop
endfacet
facet normal 0.9999999999999999 8.706154368047055e-15 0.0
  outer loop
    vertex -1.7000000000000195 -1.127986593019159e-14 3.999999904632567
    vertex -1.6420739046914237 0.4399923766743079 0.0
    vertex -1.6420739046914237 0.4399923766743079 3.999999904632567
  endloop
endfacet
facet normal -1.0 -6.219954707161557e-15 0.0
  outer loop
    vertex 1.6999999999999997 -1.127986593019159e-14 3.999999904632567
    vertex 1.642073904691404 -0.4399923766743276 0.0
    vertex 1.642073904691404 -0.4399923766743276 3.999999904632567
  endloop
endfacet
facet normal -0.9659258262890633 0.25881904510253934 0.0
  outer loop
    vertex 1.642073904691404 -0.4399923766743276 0.0
    vertex 1.6999999999999997 -1.127986593019159e-14 3.999999904632567
    vertex 1.6999999999999997 -1.127986593019159e-14 0.0
  endloop
endfacet
facet normal 0.8660254037844367 -0.5000000000000032 0.0
  outer loop
    vertex -1.4722431864335643 0.8499999999999766 0.0
    vertex -1.6420739046914237 0.4399923766743079 3.999999904632567
    vertex -1.6420739046914237 0.4399923766743079 0.0
  endloop
endfacet
facet normal 0.9659258262890641 -0.2588190451025369 0.0
  outer loop
    vertex -1.6420739046914237 0.4399923766743079 3.999999904632567
    vertex -1.4722431864335643 0.8499999999999766 0.0
    vertex -1.4722431864335643 0.8499999999999766 3.999999904632567
  endloop
endfacet
facet normal -0.8660254037844307 0.5000000000000139 0.0
  outer loop
    vertex 1.4722431864335428 -0.8499999999999956 3.999999904632567
    vertex 1.2020815280171169 -1.2020815280171326 0.0
    vertex 1.2020815280171169 -1.2020815280171326 3.999999904632567
  endloop
endfacet
facet normal -0.7071067811865547 0.7071067811865404 0.0
  outer loop
    vertex 1.2020815280171169 -1.2020815280171326 0.0
    vertex 1.4722431864335428 -0.8499999999999956 3.999999904632567
    vertex 1.4722431864335428 -0.8499999999999956 0.0
  endloop
endfacet
facet normal -0.9659258262890633 0.25881904510253934 0.0
  outer loop
    vertex 1.642073904691404 -0.4399923766743276 3.999999904632567
    vertex 1.4722431864335428 -0.8499999999999956 0.0
    vertex 1.4722431864335428 -0.8499999999999956 3.999999904632567
  endloop
endfacet
facet normal -0.8660254037844307 0.5000000000000139 0.0
  outer loop
    vertex 1.4722431864335428 -0.8499999999999956 0.0
    vertex 1.642073904691404 -0.4399923766743276 3.999999904632567
    vertex 1.642073904691404 -0.4399923766743276 0.0
  endloop
endfacet
facet normal -0.8660254037844438 -0.499999999999991 0.0
  outer loop
    vertex 1.4722431864335201 0.8499999999999766 3.999999904632567
    vertex 1.642073904691404 0.4399923766742628 0.0
    vertex 1.642073904691404 0.4399923766742628 3.999999904632567
  endloop
endfacet
facet normal -0.9659258262890608 -0.258819045102549 0.0
  outer loop
    vertex 1.642073904691404 0.4399923766742628 0.0
    vertex 1.4722431864335201 0.8499999999999766 3.999999904632567
    vertex 1.4722431864335201 0.8499999999999766 0.0
  endloop
endfacet
facet normal 0.0 -1.0 0.0
  outer loop
    vertex -2.255973186038318e-14 1.7000000000000088 3.999999904632567
    vertex -0.4399923766743079 1.6420739046913906 0.0
    vertex -2.255973186038318e-14 1.7000000000000088 0.0
  endloop
endfacet
facet normal 0.25881904510253145 -0.9659258262890653 0.0
  outer loop
    vertex -0.4399923766743079 1.6420739046913906 0.0
    vertex -2.255973186038318e-14 1.7000000000000088 3.999999904632567
    vertex -0.4399923766743079 1.6420739046913906 3.999999904632567
  endloop
endfacet
facet normal 0.25881904510253145 -0.9659258262890653 0.0
  outer loop
    vertex -0.4399923766743079 1.6420739046913906 3.999999904632567
    vertex -0.8500000000000323 1.4722431864335424 0.0
    vertex -0.4399923766743079 1.6420739046913906 0.0
  endloop
endfacet
facet normal 0.49999999999999045 -0.8660254037844443 0.0
  outer loop
    vertex -0.8500000000000323 1.4722431864335424 0.0
    vertex -0.4399923766743079 1.6420739046913906 3.999999904632567
    vertex -0.8500000000000323 1.4722431864335424 3.999999904632567
  endloop
endfacet
facet normal 0.8660254037844435 0.49999999999999145 0.0
  outer loop
    vertex -1.4722431864335417 -0.8499999999999843 0.0
    vertex -1.2020815280171384 -1.2020815280171326 3.999999904632567
    vertex -1.2020815280171384 -1.2020815280171326 0.0
  endloop
endfacet
facet normal 0.7071067811865569 0.707106781186538 0.0
  outer loop
    vertex -1.2020815280171384 -1.2020815280171326 3.999999904632567
    vertex -1.4722431864335417 -0.8499999999999843 0.0
    vertex -1.4722431864335417 -0.8499999999999843 3.999999904632567
  endloop
endfacet
facet normal 0.7071067811865623 -0.7071067811865328 0.0
  outer loop
    vertex -1.2020815280171384 1.202081528017128 0.0
    vertex -1.4722431864335643 0.8499999999999766 3.999999904632567
    vertex -1.4722431864335643 0.8499999999999766 0.0
  endloop
endfacet
facet normal 0.8660254037844367 -0.5000000000000032 0.0
  outer loop
    vertex -1.4722431864335643 0.8499999999999766 3.999999904632567
    vertex -1.2020815280171384 1.202081528017128 0.0
    vertex -1.2020815280171384 1.202081528017128 3.999999904632567
  endloop
endfacet
facet normal 0.9659258262890607 0.25881904510254955 0.0
  outer loop
    vertex -1.6420739046914237 -0.4399923766742712 0.0
    vertex -1.4722431864335417 -0.8499999999999843 3.999999904632567
    vertex -1.4722431864335417 -0.8499999999999843 0.0
  endloop
endfacet
facet normal 0.8660254037844435 0.49999999999999145 0.0
  outer loop
    vertex -1.4722431864335417 -0.8499999999999843 3.999999904632567
    vertex -1.6420739046914237 -0.4399923766742712 0.0
    vertex -1.6420739046914237 -0.4399923766742712 3.999999904632567
  endloop
endfacet
facet normal -0.7071067811865579 -0.7071067811865371 0.0
  outer loop
    vertex 1.2020815280171169 1.202081528017128 3.999999904632567
    vertex 0.849999999999987 1.472243186433531 0.0
    vertex 1.2020815280171169 1.202081528017128 0.0
  endloop
endfacet
facet normal -0.4999999999999778 -0.8660254037844514 0.0
  outer loop
    vertex 0.849999999999987 1.472243186433531 0.0
    vertex 1.2020815280171169 1.202081528017128 3.999999904632567
    vertex 0.849999999999987 1.472243186433531 3.999999904632567
  endloop
endfacet
facet normal -0.4999999999999778 -0.8660254037844514 0.0
  outer loop
    vertex 0.849999999999987 1.472243186433531 3.999999904632567
    vertex 0.4399923766742628 1.6420739046913906 0.0
    vertex 0.849999999999987 1.472243186433531 0.0
  endloop
endfacet
facet normal -0.2588190451025429 -0.9659258262890624 0.0
  outer loop
    vertex 0.4399923766742628 1.6420739046913906 0.0
    vertex 0.849999999999987 1.472243186433531 3.999999904632567
    vertex 0.4399923766742628 1.6420739046913906 3.999999904632567
  endloop
endfacet
facet normal 0.9999999999999999 8.706154368047055e-15 0.0
  outer loop
    vertex -1.7000000000000195 -1.127986593019159e-14 0.0
    vertex -1.6420739046914237 -0.4399923766742712 3.999999904632567
    vertex -1.6420739046914237 -0.4399923766742712 0.0
  endloop
endfacet
facet normal 0.9659258262890607 0.25881904510254955 0.0
  outer loop
    vertex -1.6420739046914237 -0.4399923766742712 3.999999904632567
    vertex -1.7000000000000195 -1.127986593019159e-14 0.0
    vertex -1.7000000000000195 -1.127986593019159e-14 3.999999904632567
  endloop
endfacet
facet normal 0.49999999999999045 -0.8660254037844443 0.0
  outer loop
    vertex -0.8500000000000323 1.4722431864335424 3.999999904632567
    vertex -1.2020815280171384 1.202081528017128 0.0
    vertex -0.8500000000000323 1.4722431864335424 0.0
  endloop
endfacet
facet normal 0.7071067811865623 -0.7071067811865328 0.0
  outer loop
    vertex -1.2020815280171384 1.202081528017128 0.0
    vertex -0.8500000000000323 1.4722431864335424 3.999999904632567
    vertex -1.2020815280171384 1.202081528017128 3.999999904632567
  endloop
endfacet
facet normal -0.2588190451025429 -0.9659258262890624 0.0
  outer loop
    vertex 0.4399923766742628 1.6420739046913906 3.999999904632567
    vertex -2.255973186038318e-14 1.7000000000000088 0.0
    vertex 0.4399923766742628 1.6420739046913906 0.0
  endloop
endfacet
facet normal 0.0 -1.0 0.0
  outer loop
    vertex -2.255973186038318e-14 1.7000000000000088 0.0
    vertex 0.4399923766742628 1.6420739046913906 3.999999904632567
    vertex -2.255973186038318e-14 1.7000000000000088 3.999999904632567
  endloop
endfacet
facet normal -0.1628954733945879 -0.9866433320848791 0.0
  outer loop
    vertex 12.699999809265174 -8.955061941857926 6.99999990463257
    vertex 11.029577571166683 -8.67927411418476 3.99999990463257
    vertex 12.699999809265174 -8.955061941857926 3.99999990463257
  endloop
endfacet
facet normal -0.1305261922200524 -0.9914448613738103 0.0
  outer loop
    vertex 11.029577571166683 -8.67927411418476 3.99999990463257
    vertex 12.699999809265174 -8.955061941857926 6.99999990463257
    vertex 11.029577571166683 -8.67927411418476 6.99999990463257
  endloop
endfacet
facet normal -0.1305261922200524 -0.9914448613738103 0.0
  outer loop
    vertex 11.029577571166683 -8.67927411418476 6.99999990463257
    vertex 5.526678748519383 -8.137285886609728 3.99999990463257
    vertex 11.029577571166683 -8.67927411418476 3.99999990463257
  endloop
endfacet
facet normal -0.06540312923014464 -0.9978589232386035 0.0
  outer loop
    vertex 5.526678748519383 -8.137285886609728 3.99999990463257
    vertex 11.029577571166683 -8.67927411418476 6.99999990463257
    vertex 5.526678748519383 -8.137285886609728 6.99999990463257
  endloop
endfacet
facet normal 0.0 0.0 1.0
  outer loop
    vertex -12.699999809265025 -23.400001525878945 3.99999990463257
    vertex -11.029348914022135 -8.6792741141847 3.99999990463257
    vertex -12.699999809265115 -8.955099693305177 3.99999990463257
  endloop
endfacet
facet normal 0.0 0.0 1.0
  outer loop
    vertex -11.029348914022135 -8.6792741141847 3.99999990463257
    vertex -12.699999809265025 -23.400001525878945 3.99999990463257
    vertex 12.699999809265243 -23.40000152587885 3.99999990463257
  endloop
endfacet
facet normal 0.0 0.0 1.0
  outer loop
    vertex -11.029348914022135 -8.6792741141847 3.99999990463257
    vertex 12.699999809265243 -23.40000152587885 3.99999990463257
    vertex -5.526450091374825 -8.137285886609682 3.99999990463257
  endloop
endfacet
facet normal 0.0 0.0 1.0
  outer loop
    vertex -5.526450091374825 -8.137285886609682 3.99999990463257
    vertex 12.699999809265243 -23.40000152587885 3.99999990463257
    vertex 0.00011432857226605363 -7.95636490027172 3.99999990463257
  endloop
endfacet
facet normal 0.0 0.0 1.0
  outer loop
    vertex 0.00011432857226605363 -7.95636490027172 3.99999990463257
    vertex 12.699999809265243 -23.40000152587885 3.99999990463257
    vertex 5.526678748519383 -8.137285886609728 3.99999990463257
  endloop
endfacet
facet normal 0.0 0.0 1.0
  outer loop
    vertex 5.526678748519383 -8.137285886609728 3.99999990463257
    vertex 12.699999809265243 -23.40000152587885 3.99999990463257
    vertex 11.029577571166683 -8.67927411418476 3.99999990463257
  endloop
endfacet
facet normal 0.0 0.0 1.0
  outer loop
    vertex 11.029577571166683 -8.67927411418476 3.99999990463257
    vertex 12.699999809265243 -23.40000152587885 3.99999990463257
    vertex 12.699999809265174 -8.955061941857926 3.99999990463257
  endloop
endfacet
facet normal -0.06540312923014464 -0.9978589232386035 0.0
  outer loop
    vertex 5.526678748519383 -8.137285886609728 6.99999990463257
    vertex 0.00011432857226605363 -7.95636490027172 3.99999990463257
    vertex 5.526678748519383 -8.137285886609728 3.99999990463257
  endloop
endfacet
facet normal -4.002132047265475e-15 -1.0 0.0
  outer loop
    vertex 0.00011432857226605363 -7.95636490027172 3.99999990463257
    vertex 5.526678748519383 -8.137285886609728 6.99999990463257
    vertex 0.00011432857226605363 -7.95636490027172 6.99999990463257
  endloop
endfacet
facet normal -4.002132047265475e-15 -1.0 0.0
  outer loop
    vertex 0.00011432857226605363 -7.95636490027172 6.99999990463257
    vertex -5.526450091374825 -8.137285886609682 3.99999990463257
    vertex 0.00011432857226605363 -7.95636490027172 3.99999990463257
  endloop
endfacet
facet normal 0.06540312923013904 -0.9978589232386037 0.0
  outer loop
    vertex -5.526450091374825 -8.137285886609682 3.99999990463257
    vertex 0.00011432857226605363 -7.95636490027172 6.99999990463257
    vertex -5.526450091374825 -8.137285886609682 6.99999990463257
  endloop
endfacet
facet normal 0.06540312923013904 -0.9978589232386037 0.0
  outer loop
    vertex -5.526450091374825 -8.137285886609682 6.99999990463257
    vertex -11.029348914022135 -8.6792741141847 3.99999990463257
    vertex -5.526450091374825 -8.137285886609682 3.99999990463257
  endloop
endfacet
facet normal 0.13052619222004294 -0.9914448613738116 0.0
  outer loop
    vertex -11.029348914022135 -8.6792741141847 3.99999990463257
    vertex -5.526450091374825 -8.137285886609682 6.99999990463257
    vertex -11.029348914022135 -8.6792741141847 6.99999990463257
  endloop
endfacet
facet normal 0.13052619222004294 -0.9914448613738116 0.0
  outer loop
    vertex -11.029348914022135 -8.6792741141847 6.99999990463257
    vertex -12.699999809265115 -8.955099693305177 3.99999990463257
    vertex -11.029348914022135 -8.6792741141847 3.99999990463257
  endloop
endfacet
facet normal 0.16289547339457214 -0.9866433320848819 0.0
  outer loop
    vertex -12.699999809265115 -8.955099693305177 3.99999990463257
    vertex -11.029348914022135 -8.6792741141847 6.99999990463257
    vertex -12.699999809265115 -8.955099693305177 6.99999990463257
  endloop
endfacet
facet normal 0.0 0.0 1.0
  outer loop
    vertex -12.699999809265115 -8.955099693305177 6.99999990463257
    vertex -12.422499656677262 -2.5595200061798375 6.99999990463257
    vertex -12.699999809265138 -5.1999998092651785 6.99999990463257
  endloop
endfacet
facet normal 0.0 0.0 1.0
  outer loop
    vertex -12.422499656677262 -2.5595200061798375 6.99999990463257
    vertex -12.699999809265115 -8.955099693305177 6.99999990463257
    vertex -11.029348914022135 -8.6792741141847 6.99999990463257
  endloop
endfacet
facet normal 0.0 0.0 1.0
  outer loop
    vertex -12.422499656677262 -2.5595200061798375 6.99999990463257
    vertex -11.029348914022135 -8.6792741141847 6.99999990463257
    vertex -11.602000236511248 -0.03444499894981377 6.99999990463257
  endloop
endfacet
facet normal 0.0 0.0 1.0
  outer loop
    vertex -11.602000236511248 -0.03444499894981377 6.99999990463257
    vertex -11.029348914022135 -8.6792741141847 6.99999990463257
    vertex -10.2744998931885 2.264869928359949 6.99999990463257
  endloop
endfacet
facet normal 0.0 0.0 1.0
  outer loop
    vertex -10.2744998931885 2.264869928359949 6.99999990463257
    vertex -11.029348914022135 -8.6792741141847 6.99999990463257
    vertex -5.526450091374825 -8.137285886609682 6.99999990463257
  endloop
endfacet
facet normal 0.0 0.0 1.0
  outer loop
    vertex -10.2744998931885 2.264869928359949 6.99999990463257
    vertex -5.526450091374825 -8.137285886609682 6.99999990463257
    vertex -8.497960090637257 4.237939834594685 6.99999990463257
  endloop
endfacet
facet normal 0.0 0.0 1.0
  outer loop
    vertex -8.497960090637257 4.237939834594685 6.99999990463257
    vertex -5.526450091374825 -8.137285886609682 6.99999990463257
    vertex -6.349999904632614 5.798520088195745 6.99999990463257
  endloop
endfacet
facet normal 0.0 0.0 1.0
  outer loop
    vertex -6.349999904632614 5.798520088195745 6.99999990463257
    vertex -5.526450091374825 -8.137285886609682 6.99999990463257
    vertex -3.92452001571659 6.878419876098624 6.99999990463257
  endloop
endfacet
facet normal 0.0 0.0 1.0
  outer loop
    vertex -3.92452001571659 6.878419876098624 6.99999990463257
    vertex -5.526450091374825 -8.137285886609682 6.99999990463257
    vertex -2.8977774788672273 -0.7764571353075654 6.99999990463257
  endloop
endfacet
facet normal 0.0 0.0 1.0
  outer loop
    vertex -2.8977774788672273 -0.7764571353075654 6.99999990463257
    vertex -5.526450091374825 -8.137285886609682 6.99999990463257
    vertex 0.00011432857226605363 -7.95636490027172 6.99999990463257
  endloop
endfacet
facet normal 0.0 0.0 1.0
  outer loop
    vertex -3.92452001571659 6.878419876098624 6.99999990463257
    vertex -2.8977774788672273 -0.7764571353075654 6.99999990463257
    vertex -3.000000000000017 -1.127986593019159e-14 6.99999990463257
  endloop
endfacet
facet normal 0.0 0.0 1.0
  outer loop
    vertex -2.8977774788672273 -0.7764571353075654 6.99999990463257
    vertex 0.00011432857226605363 -7.95636490027172 6.99999990463257
    vertex -2.598076211353323 -1.5000000000000255 6.99999990463257
  endloop
endfacet
facet normal 0.0 0.0 1.0
  outer loop
    vertex -2.598076211353323 -1.5000000000000255 6.99999990463257
    vertex 0.00011432857226605363 -7.95636490027172 6.99999990463257
    vertex -2.1213203435596704 -2.1213203435596535 6.99999990463257
  endloop
endfacet
facet normal 0.0 0.0 1.0
  outer loop
    vertex -2.1213203435596704 -2.1213203435596535 6.99999990463257
    vertex 0.00011432857226605363 -7.95636490027172 6.99999990463257
    vertex -1.4999999999999973 -2.598076211353306 6.99999990463257
  endloop
endfacet
facet normal 0.0 0.0 1.0
  outer loop
    vertex -1.4999999999999973 -2.598076211353306 6.99999990463257
    vertex 0.00011432857226605363 -7.95636490027172 6.99999990463257
    vertex -0.7764571353075795 -2.897777478867199 6.99999990463257
  endloop
endfacet
facet normal 0.0 0.0 1.0
  outer loop
    vertex -0.7764571353075795 -2.897777478867199 6.99999990463257
    vertex 0.00011432857226605363 -7.95636490027172 6.99999990463257
    vertex 0.0 -3.0 6.99999990463257
  endloop
endfacet
facet normal 0.0 0.0 1.0
  outer loop
    vertex 0.0 -3.0 6.99999990463257
    vertex 0.00011432857226605363 -7.95636490027172 6.99999990463257
    vertex 0.7764571353075342 -2.8977774788672104 6.99999990463257
  endloop
endfacet
facet normal 0.0 0.0 1.0
  outer loop
    vertex 0.7764571353075342 -2.8977774788672104 6.99999990463257
    vertex 0.00011432857226605363 -7.95636490027172 6.99999990463257
    vertex 5.526678748519383 -8.137285886609728 6.99999990463257
  endloop
endfacet
facet normal 0.0 0.0 1.0
  outer loop
    vertex 0.7764571353075342 -2.8977774788672104 6.99999990463257
    vertex 5.526678748519383 -8.137285886609728 6.99999990463257
    vertex 1.4999999999999984 -2.598076211353306 6.99999990463257
  endloop
endfacet
facet normal 0.0 0.0 1.0
  outer loop
    vertex 1.4999999999999984 -2.598076211353306 6.99999990463257
    vertex 5.526678748519383 -8.137285886609728 6.99999990463257
    vertex 2.121320343559628 -2.1213203435596535 6.99999990463257
  endloop
endfacet
facet normal 0.0 0.0 1.0
  outer loop
    vertex 2.121320343559628 -2.1213203435596535 6.99999990463257
    vertex 5.526678748519383 -8.137285886609728 6.99999990463257
    vertex 2.598076211353326 -1.5000000000000255 6.99999990463257
  endloop
endfacet
facet normal 0.0 0.0 1.0
  outer loop
    vertex 2.598076211353326 -1.5000000000000255 6.99999990463257
    vertex 5.526678748519383 -8.137285886609728 6.99999990463257
    vertex 2.8977774788672077 -0.7764571353075654 6.99999990463257
  endloop
endfacet
facet normal 0.0 0.0 1.0
  outer loop
    vertex 2.8977774788672077 -0.7764571353075654 6.99999990463257
    vertex 5.526678748519383 -8.137285886609728 6.99999990463257
    vertex 2.9999999999999747 0.0 6.99999990463257
  endloop
endfacet
facet normal 0.0 0.0 1.0
  outer loop
    vertex 2.9999999999999747 0.0 6.99999990463257
    vertex 5.526678748519383 -8.137285886609728 6.99999990463257
    vertex 3.9245200157165057 6.878419876098624 6.99999990463257
  endloop
endfacet
facet normal 0.0 0.0 1.0
  outer loop
    vertex 3.9245200157165057 6.878419876098624 6.99999990463257
    vertex 5.526678748519383 -8.137285886609728 6.99999990463257
    vertex 6.349999904632522 5.798520088195835 6.99999990463257
  endloop
endfacet
facet normal 0.0 0.0 1.0
  outer loop
    vertex 6.349999904632522 5.798520088195835 6.99999990463257
    vertex 5.526678748519383 -8.137285886609728 6.99999990463257
    vertex 11.029577571166683 -8.67927411418476 6.99999990463257
  endloop
endfacet
facet normal 0.0 0.0 1.0
  outer loop
    vertex 6.349999904632522 5.798520088195835 6.99999990463257
    vertex 11.029577571166683 -8.67927411418476 6.99999990463257
    vertex 8.497960090637164 4.237939834594764 6.99999990463257
  endloop
endfacet
facet normal 0.0 0.0 1.0
  outer loop
    vertex 8.497960090637164 4.237939834594764 6.99999990463257
    vertex 11.029577571166683 -8.67927411418476 6.99999990463257
    vertex 10.274499893188452 2.26486992836005 6.99999990463257
  endloop
endfacet
facet normal 0.0 0.0 1.0
  outer loop
    vertex 10.274499893188452 2.26486992836005 6.99999990463257
    vertex 11.029577571166683 -8.67927411418476 6.99999990463257
    vertex 11.602000236511222 -0.0344449989497348 6.99999990463257
  endloop
endfacet
facet normal 0.0 0.0 1.0
  outer loop
    vertex 11.602000236511222 -0.0344449989497348 6.99999990463257
    vertex 11.029577571166683 -8.67927411418476 6.99999990463257
    vertex 12.699999809265174 -8.955061941857926 6.99999990463257
  endloop
endfacet
facet normal 0.0 0.0 1.0
  outer loop
    vertex 11.602000236511222 -0.0344449989497348 6.99999990463257
    vertex 12.699999809265174 -8.955061941857926 6.99999990463257
    vertex 12.422499656677253 -2.5595200061797527 6.99999990463257
  endloop
endfacet
facet normal 0.0 0.0 1.0
  outer loop
    vertex 12.422499656677253 -2.5595200061797527 6.99999990463257
    vertex 12.699999809265174 -8.955061941857926 6.99999990463257
    vertex 12.699999809265153 -5.199999809265089 6.99999990463257
  endloop
endfacet
facet normal 0.0 0.0 1.0
  outer loop
    vertex -3.92452001571659 6.878419876098624 6.99999990463257
    vertex -2.8977774788672273 0.7764571353075578 6.99999990463257
    vertex -1.3275099992752453 7.4304299354553365 6.99999990463257
  endloop
endfacet
facet normal 0.0 0.0 1.0
  outer loop
    vertex -2.8977774788672273 0.7764571353075578 6.99999990463257
    vertex -3.92452001571659 6.878419876098624 6.99999990463257
    vertex -3.000000000000017 -1.127986593019159e-14 6.99999990463257
  endloop
endfacet
facet normal 0.0 0.0 1.0
  outer loop
    vertex -1.3275099992752453 7.4304299354553365 6.99999990463257
    vertex -2.8977774788672273 0.7764571353075578 6.99999990463257
    vertex -2.598076211353323 1.5000000000000093 6.99999990463257
  endloop
endfacet
facet normal 0.0 0.0 1.0
  outer loop
    vertex -1.3275099992752453 7.4304299354553365 6.99999990463257
    vertex -2.598076211353323 1.5000000000000093 6.99999990463257
    vertex -2.1213203435596477 2.1213203435596375 6.99999990463257
  endloop
endfacet
facet normal 0.0 0.0 1.0
  outer loop
    vertex -1.3275099992752453 7.4304299354553365 6.99999990463257
    vertex -2.1213203435596477 2.1213203435596375 6.99999990463257
    vertex -1.50000000000002 2.5980762113532676 6.99999990463257
  endloop
endfacet
facet normal 0.0 0.0 1.0
  outer loop
    vertex -1.3275099992752453 7.4304299354553365 6.99999990463257
    vertex -1.50000000000002 2.5980762113532676 6.99999990463257
    vertex -0.7764571353075795 2.8977774788672055 6.99999990463257
  endloop
endfacet
facet normal 0.0 0.0 1.0
  outer loop
    vertex -1.3275099992752453 7.4304299354553365 6.99999990463257
    vertex -0.7764571353075795 2.8977774788672055 6.99999990463257
    vertex 1.3275099992751787 7.430429935455325 6.99999990463257
  endloop
endfacet
facet normal 0.0 0.0 1.0
  outer loop
    vertex 1.3275099992751787 7.430429935455325 6.99999990463257
    vertex -0.7764571353075795 2.8977774788672055 6.99999990463257
    vertex 0.0 2.999999999999984 6.99999990463257
  endloop
endfacet
facet normal 0.0 0.0 1.0
  outer loop
    vertex 1.3275099992751787 7.430429935455325 6.99999990463257
    vertex 0.0 2.999999999999984 6.99999990463257
    vertex 0.7764571353075342 2.8977774788671944 6.99999990463257
  endloop
endfacet
facet normal 0.0 0.0 1.0
  outer loop
    vertex 1.3275099992751787 7.430429935455325 6.99999990463257
    vertex 0.7764571353075342 2.8977774788671944 6.99999990463257
    vertex 1.4999999999999984 2.5980762113532787 6.99999990463257
  endloop
endfacet
facet normal 0.0 0.0 1.0
  outer loop
    vertex 1.3275099992751787 7.430429935455325 6.99999990463257
    vertex 1.4999999999999984 2.5980762113532787 6.99999990463257
    vertex 3.9245200157165057 6.878419876098624 6.99999990463257
  endloop
endfacet
facet normal 0.0 0.0 1.0
  outer loop
    vertex 3.9245200157165057 6.878419876098624 6.99999990463257
    vertex 1.4999999999999984 2.5980762113532787 6.99999990463257
    vertex 2.121320343559628 2.1213203435596486 6.99999990463257
  endloop
endfacet
facet normal 0.0 0.0 1.0
  outer loop
    vertex 3.9245200157165057 6.878419876098624 6.99999990463257
    vertex 2.121320343559628 2.1213203435596486 6.99999990463257
    vertex 2.5980762113533036 1.5000000000000093 6.99999990463257
  endloop
endfacet
facet normal 0.0 0.0 1.0
  outer loop
    vertex 3.9245200157165057 6.878419876098624 6.99999990463257
    vertex 2.5980762113533036 1.5000000000000093 6.99999990463257
    vertex 2.897777478867185 0.7764571353075578 6.99999990463257
  endloop
endfacet
facet normal 0.0 0.0 1.0
  outer loop
    vertex 3.9245200157165057 6.878419876098624 6.99999990463257
    vertex 2.897777478867185 0.7764571353075578 6.99999990463257
    vertex 2.9999999999999747 0.0 6.99999990463257
  endloop
endfacet
facet normal 0.0 0.0 -1.0
  outer loop
    vertex -1.3275099992752453 7.4304299354553365 0.0
    vertex -1.7000000000000195 -1.127986593019159e-14 0.0
    vertex -3.92452001571659 6.878419876098624 0.0
  endloop
endfacet
facet normal 0.0 0.0 -1.0
  outer loop
    vertex -1.7000000000000195 -1.127986593019159e-14 0.0
    vertex -1.3275099992752453 7.4304299354553365 0.0
    vertex -1.6420739046914237 0.4399923766743079 0.0
  endloop
endfacet
facet normal 0.0 0.0 -1.0
  outer loop
    vertex -1.6420739046914237 0.4399923766743079 0.0
    vertex -1.3275099992752453 7.4304299354553365 0.0
    vertex -1.4722431864335643 0.8499999999999766 0.0
  endloop
endfacet
facet normal 0.0 0.0 -1.0
  outer loop
    vertex -1.4722431864335643 0.8499999999999766 0.0
    vertex -1.3275099992752453 7.4304299354553365 0.0
    vertex -1.2020815280171384 1.202081528017128 0.0
  endloop
endfacet
facet normal 0.0 0.0 -1.0
  outer loop
    vertex -1.2020815280171384 1.202081528017128 0.0
    vertex -1.3275099992752453 7.4304299354553365 0.0
    vertex 1.3275099992751787 7.430429935455325 0.0
  endloop
endfacet
facet normal 0.0 0.0 -1.0
  outer loop
    vertex -1.2020815280171384 1.202081528017128 0.0
    vertex 1.3275099992751787 7.430429935455325 0.0
    vertex -0.8500000000000323 1.4722431864335424 0.0
  endloop
endfacet
facet normal 0.0 0.0 -1.0
  outer loop
    vertex -0.8500000000000323 1.4722431864335424 0.0
    vertex 1.3275099992751787 7.430429935455325 0.0
    vertex -0.4399923766743079 1.6420739046913906 0.0
  endloop
endfacet
facet normal 0.0 0.0 -1.0
  outer loop
    vertex -0.4399923766743079 1.6420739046913906 0.0
    vertex 1.3275099992751787 7.430429935455325 0.0
    vertex -2.255973186038318e-14 1.7000000000000088 0.0
  endloop
endfacet
facet normal 0.0 0.0 -1.0
  outer loop
    vertex -2.255973186038318e-14 1.7000000000000088 0.0
    vertex 1.3275099992751787 7.430429935455325 0.0
    vertex 0.4399923766742628 1.6420739046913906 0.0
  endloop
endfacet
facet normal 0.0 0.0 -1.0
  outer loop
    vertex 0.4399923766742628 1.6420739046913906 0.0
    vertex 1.3275099992751787 7.430429935455325 0.0
    vertex 0.849999999999987 1.472243186433531 0.0
  endloop
endfacet
facet normal 0.0 0.0 -1.0
  outer loop
    vertex 0.849999999999987 1.472243186433531 0.0
    vertex 1.3275099992751787 7.430429935455325 0.0
    vertex 1.2020815280171169 1.202081528017128 0.0
  endloop
endfacet
facet normal 0.0 0.0 -1.0
  outer loop
    vertex 1.2020815280171169 1.202081528017128 0.0
    vertex 1.3275099992751787 7.430429935455325 0.0
    vertex 1.4722431864335201 0.8499999999999766 0.0
  endloop
endfacet
facet normal 0.0 0.0 -1.0
  outer loop
    vertex 1.4722431864335201 0.8499999999999766 0.0
    vertex 1.3275099992751787 7.430429935455325 0.0
    vertex 3.9245200157165057 6.878419876098624 0.0
  endloop
endfacet
facet normal 0.0 0.0 -1.0
  outer loop
    vertex 1.4722431864335201 0.8499999999999766 0.0
    vertex 3.9245200157165057 6.878419876098624 0.0
    vertex 1.642073904691404 0.4399923766742628 0.0
  endloop
endfacet
facet normal 0.0 0.0 -1.0
  outer loop
    vertex 1.642073904691404 0.4399923766742628 0.0
    vertex 3.9245200157165057 6.878419876098624 0.0
    vertex 1.6999999999999997 -1.127986593019159e-14 0.0
  endloop
endfacet
facet normal 0.0 0.0 -1.0
  outer loop
    vertex -12.422499656677262 -2.5595200061798375 0.0
    vertex -12.699999809265025 -23.400001525878945 0.0
    vertex -12.699999809265138 -5.1999998092651785 0.0
  endloop
endfacet
facet normal 0.0 0.0 -1.0
  outer loop
    vertex -12.699999809265025 -23.400001525878945 0.0
    vertex -12.422499656677262 -2.5595200061798375 0.0
    vertex 12.699999809265243 -23.40000152587885 0.0
  endloop
endfacet
facet normal 0.0 0.0 -1.0
  outer loop
    vertex 12.699999809265243 -23.40000152587885 0.0
    vertex -12.422499656677262 -2.5595200061798375 0.0
    vertex -11.602000236511248 -0.03444499894981377 0.0
  endloop
endfacet
facet normal 0.0 0.0 -1.0
  outer loop
    vertex 12.699999809265243 -23.40000152587885 0.0
    vertex -11.602000236511248 -0.03444499894981377 0.0
    vertex -10.2744998931885 2.264869928359949 0.0
  endloop
endfacet
facet normal 0.0 0.0 -1.0
  outer loop
    vertex 12.699999809265243 -23.40000152587885 0.0
    vertex -10.2744998931885 2.264869928359949 0.0
    vertex -8.497960090637257 4.237939834594685 0.0
  endloop
endfacet
facet normal 0.0 0.0 -1.0
  outer loop
    vertex 12.699999809265243 -23.40000152587885 0.0
    vertex -8.497960090637257 4.237939834594685 0.0
    vertex -6.349999904632614 5.798520088195745 0.0
  endloop
endfacet
facet normal 0.0 0.0 -1.0
  outer loop
    vertex 12.699999809265243 -23.40000152587885 0.0
    vertex -6.349999904632614 5.798520088195745 0.0
    vertex -1.4722431864335417 -0.8499999999999843 0.0
  endloop
endfacet
facet normal 0.0 0.0 -1.0
  outer loop
    vertex -1.4722431864335417 -0.8499999999999843 0.0
    vertex -6.349999904632614 5.798520088195745 0.0
    vertex -1.6420739046914237 -0.4399923766742712 0.0
  endloop
endfacet
facet normal 0.0 0.0 -1.0
  outer loop
    vertex -1.6420739046914237 -0.4399923766742712 0.0
    vertex -6.349999904632614 5.798520088195745 0.0
    vertex -3.92452001571659 6.878419876098624 0.0
  endloop
endfacet
facet normal 0.0 0.0 -1.0
  outer loop
    vertex -1.6420739046914237 -0.4399923766742712 0.0
    vertex -3.92452001571659 6.878419876098624 0.0
    vertex -1.7000000000000195 -1.127986593019159e-14 0.0
  endloop
endfacet
facet normal 0.0 0.0 -1.0
  outer loop
    vertex 12.699999809265243 -23.40000152587885 0.0
    vertex -1.4722431864335417 -0.8499999999999843 0.0
    vertex -1.2020815280171384 -1.2020815280171326 0.0
  endloop
endfacet
facet normal 0.0 0.0 -1.0
  outer loop
    vertex 12.699999809265243 -23.40000152587885 0.0
    vertex -1.2020815280171384 -1.2020815280171326 0.0
    vertex -0.8500000000000097 -1.472243186433536 0.0
  endloop
endfacet
facet normal 0.0 0.0 -1.0
  outer loop
    vertex 12.699999809265243 -23.40000152587885 0.0
    vertex -0.8500000000000097 -1.472243186433536 0.0
    vertex -0.4399923766742853 -1.6420739046914068 0.0
  endloop
endfacet
facet normal 0.0 0.0 -1.0
  outer loop
    vertex 12.699999809265243 -23.40000152587885 0.0
    vertex -0.4399923766742853 -1.6420739046914068 0.0
    vertex 0.0 -1.700000000000025 0.0
  endloop
endfacet
facet normal 0.0 0.0 -1.0
  outer loop
    vertex 12.699999809265243 -23.40000152587885 0.0
    vertex 0.0 -1.700000000000025 0.0
    vertex 0.4399923766742853 -1.6420739046914068 0.0
  endloop
endfacet
facet normal 0.0 0.0 -1.0
  outer loop
    vertex 12.699999809265243 -23.40000152587885 0.0
    vertex 0.4399923766742853 -1.6420739046914068 0.0
    vertex 0.8500000000000095 -1.4722431864335472 0.0
  endloop
endfacet
facet normal 0.0 0.0 -1.0
  outer loop
    vertex 12.699999809265243 -23.40000152587885 0.0
    vertex 0.8500000000000095 -1.4722431864335472 0.0
    vertex 1.2020815280171169 -1.2020815280171326 0.0
  endloop
endfacet
facet normal 0.0 0.0 -1.0
  outer loop
    vertex 12.699999809265243 -23.40000152587885 0.0
    vertex 1.2020815280171169 -1.2020815280171326 0.0
    vertex 1.4722431864335428 -0.8499999999999956 0.0
  endloop
endfacet
facet normal 0.0 0.0 -1.0
  outer loop
    vertex 12.699999809265243 -23.40000152587885 0.0
    vertex 1.4722431864335428 -0.8499999999999956 0.0
    vertex 1.642073904691404 -0.4399923766743276 0.0
  endloop
endfacet
facet normal 0.0 0.0 -1.0
  outer loop
    vertex 12.699999809265243 -23.40000152587885 0.0
    vertex 1.642073904691404 -0.4399923766743276 0.0
    vertex 1.6999999999999997 -1.127986593019159e-14 0.0
  endloop
endfacet
facet normal 0.0 0.0 -1.0
  outer loop
    vertex 12.699999809265243 -23.40000152587885 0.0
    vertex 1.6999999999999997 -1.127986593019159e-14 0.0
    vertex 3.9245200157165057 6.878419876098624 0.0
  endloop
endfacet
facet normal 0.0 0.0 -1.0
  outer loop
    vertex 12.699999809265243 -23.40000152587885 0.0
    vertex 3.9245200157165057 6.878419876098624 0.0
    vertex 6.349999904632522 5.798520088195835 0.0
  endloop
endfacet
facet normal 0.0 0.0 -1.0
  outer loop
    vertex 12.699999809265243 -23.40000152587885 0.0
    vertex 6.349999904632522 5.798520088195835 0.0
    vertex 8.497960090637164 4.237939834594764 0.0
  endloop
endfacet
facet normal 0.0 0.0 -1.0
  outer loop
    vertex 12.699999809265243 -23.40000152587885 0.0
    vertex 8.497960090637164 4.237939834594764 0.0
    vertex 10.274499893188452 2.26486992836005 0.0
  endloop
endfacet
facet normal 0.0 0.0 -1.0
  outer loop
    vertex 12.699999809265243 -23.40000152587885 0.0
    vertex 10.274499893188452 2.26486992836005 0.0
    vertex 11.602000236511222 -0.0344449989497348 0.0
  endloop
endfacet
facet normal 0.0 0.0 -1.0
  outer loop
    vertex 12.699999809265243 -23.40000152587885 0.0
    vertex 11.602000236511222 -0.0344449989497348 0.0
    vertex 12.422499656677253 -2.5595200061797527 0.0
  endloop
endfacet
facet normal 0.0 0.0 -1.0
  outer loop
    vertex 12.699999809265243 -23.40000152587885 0.0
    vertex 12.422499656677253 -2.5595200061797527 0.0
    vertex 12.699999809265153 -5.199999809265089 0.0
  endloop
endfacet
facet normal 0.9781466253011808 0.207916279814524 0.0
  outer loop
    vertex 12.422499656677253 -2.5595200061797527 0.0
    vertex 12.699999809265153 -5.199999809265089 6.99999990463257
    vertex 12.699999809265153 -5.199999809265089 0.0
  endloop
endfacet
facet normal 0.9986297842820738 0.05233119475741625 -1.1345192058642152e-16
  outer loop
    vertex 12.699999809265153 -5.199999809265089 6.99999990463257
    vertex 12.422499656677253 -2.5595200061797527 0.0
    vertex 12.422499656677253 -2.5595200061797527 6.99999990463257
  endloop
endfacet
facet normal 0.9986297842820738 0.05233119475741625 -1.1345192058642152e-16
  outer loop
    vertex 12.699999809265153 -5.199999809265089 0.0
    vertex 12.699999809265243 -23.40000152587885 3.99999990463257
    vertex 12.699999809265243 -23.40000152587885 0.0
  endloop
endfacet
facet normal 1.0 4.913087676820992e-15 -2.265929339632103e-16
  outer loop
    vertex 12.699999809265243 -23.40000152587885 3.99999990463257
    vertex 12.699999809265153 -5.199999809265089 0.0
    vertex 12.699999809265174 -8.955061941857926 3.99999990463257
  endloop
endfacet
facet normal 1.0 4.913087676820992e-15 -2.265929339632103e-16
  outer loop
    vertex 12.699999809265174 -8.955061941857926 3.99999990463257
    vertex 12.699999809265153 -5.199999809265089 0.0
    vertex 12.699999809265174 -8.955061941857926 6.99999990463257
  endloop
endfacet
facet normal 1.0 4.913087676820992e-15 -2.265929339632103e-16
  outer loop
    vertex 12.699999809265174 -8.955061941857926 6.99999990463257
    vertex 12.699999809265153 -5.199999809265089 0.0
    vertex 12.699999809265153 -5.199999809265089 6.99999990463257
  endloop
endfacet
facet normal 3.774758340416716e-15 -1.0 0.0
  outer loop
    vertex 12.699999809265243 -23.40000152587885 3.99999990463257
    vertex -12.699999809265025 -23.400001525878945 0.0
    vertex 12.699999809265243 -23.40000152587885 0.0
  endloop
endfacet
facet normal 3.774758340416716e-15 -1.0 0.0
  outer loop
    vertex -12.699999809265025 -23.400001525878945 0.0
    vertex 12.699999809265243 -23.40000152587885 3.99999990463257
    vertex -12.699999809265025 -23.400001525878945 3.99999990463257
  endloop
endfacet
facet normal 0.9135422567732701 0.40674383226989524 0.0
  outer loop
    vertex 11.602000236511222 -0.0344449989497348 0.0
    vertex 12.422499656677253 -2.5595200061797527 6.99999990463257
    vertex 12.422499656677253 -2.5595200061797527 0.0
  endloop
endfacet
facet normal 0.9781466253011808 0.207916279814524 0.0
  outer loop
    vertex 12.422499656677253 -2.5595200061797527 6.99999990463257
    vertex 11.602000236511222 -0.0344449989497348 0.0
    vertex 11.602000236511222 -0.0344449989497348 6.99999990463257
  endloop
endfacet
facet normal 0.809019600536402 0.5877816652022418 0.0
  outer loop
    vertex 10.274499893188452 2.26486992836005 0.0
    vertex 11.602000236511222 -0.0344449989497348 6.99999990463257
    vertex 11.602000236511222 -0.0344449989497348 0.0
  endloop
endfacet
facet normal 0.9135422567732701 0.40674383226989524 0.0
  outer loop
    vertex 11.602000236511222 -0.0344449989497348 6.99999990463257
    vertex 10.274499893188452 2.26486992836005 0.0
    vertex 10.274499893188452 2.26486992836005 6.99999990463257
  endloop
endfacet
facet normal 0.669132247654933 0.7431433476444886 0.0
  outer loop
    vertex 8.497960090637164 4.237939834594764 0.0
    vertex 10.274499893188452 2.26486992836005 6.99999990463257
    vertex 10.274499893188452 2.26486992836005 0.0
  endloop
endfacet
facet normal 0.809019600536402 0.5877816652022418 0.0
  outer loop
    vertex 10.274499893188452 2.26486992836005 6.99999990463257
    vertex 8.497960090637164 4.237939834594764 0.0
    vertex 8.497960090637164 4.237939834594764 6.99999990463257
  endloop
endfacet
facet normal 0.5000004280330133 0.8660251566593222 0.0
  outer loop
    vertex 6.349999904632522 5.798520088195835 6.99999990463257
    vertex 8.497960090637164 4.237939834594764 0.0
    vertex 6.349999904632522 5.798520088195835 0.0
  endloop
endfacet
facet normal 0.669132247654933 0.7431433476444886 0.0
  outer loop
    vertex 8.497960090637164 4.237939834594764 0.0
    vertex 6.349999904632522 5.798520088195835 6.99999990463257
    vertex 8.497960090637164 4.237939834594764 6.99999990463257
  endloop
endfacet
facet normal 0.3090178128211025 0.9510562503654882 0.0
  outer loop
    vertex 3.9245200157165057 6.878419876098624 6.99999990463257
    vertex 6.349999904632522 5.798520088195835 0.0
    vertex 3.9245200157165057 6.878419876098624 0.0
  endloop
endfacet
facet normal 0.5000004280330133 0.8660251566593222 0.0
  outer loop
    vertex 6.349999904632522 5.798520088195835 0.0
    vertex 3.9245200157165057 6.878419876098624 6.99999990463257
    vertex 6.349999904632522 5.798520088195835 6.99999990463257
  endloop
endfacet
facet normal 0.10452819573321263 0.9945219234872398 0.0
  outer loop
    vertex 1.3275099992751787 7.430429935455325 6.99999990463257
    vertex 3.9245200157165057 6.878419876098624 0.0
    vertex 1.3275099992751787 7.430429935455325 0.0
  endloop
endfacet
facet normal 0.3090178128211025 0.9510562503654882 0.0
  outer loop
    vertex 3.9245200157165057 6.878419876098624 0.0
    vertex 1.3275099992751787 7.430429935455325 6.99999990463257
    vertex 3.9245200157165057 6.878419876098624 6.99999990463257
  endloop
endfacet
facet normal -0.10452819573320975 0.99452192348724 0.0
  outer loop
    vertex -1.3275099992752453 7.4304299354553365 6.99999990463257
    vertex 1.3275099992751787 7.430429935455325 0.0
    vertex -1.3275099992752453 7.4304299354553365 0.0
  endloop
endfacet
facet normal 0.10452819573321263 0.9945219234872398 0.0
  outer loop
    vertex 1.3275099992751787 7.430429935455325 0.0
    vertex -1.3275099992752453 7.4304299354553365 6.99999990463257
    vertex 1.3275099992751787 7.430429935455325 6.99999990463257
  endloop
endfacet
facet normal -0.3090178128211182 0.9510562503654831 0.0
  outer loop
    vertex -3.92452001571659 6.878419876098624 6.99999990463257
    vertex -1.3275099992752453 7.4304299354553365 0.0
    vertex -3.92452001571659 6.878419876098624 0.0
  endloop
endfacet
facet normal -0.10452819573320975 0.99452192348724 0.0
  outer loop
    vertex -1.3275099992752453 7.4304299354553365 0.0
    vertex -3.92452001571659 6.878419876098624 6.99999990463257
    vertex -1.3275099992752453 7.4304299354553365 6.99999990463257
  endloop
endfacet
facet normal -0.5000004280330247 0.8660251566593156 0.0
  outer loop
    vertex -6.349999904632614 5.798520088195745 6.99999990463257
    vertex -3.92452001571659 6.878419876098624 0.0
    vertex -6.349999904632614 5.798520088195745 0.0
  endloop
endfacet
facet normal -0.3090178128211182 0.9510562503654831 0.0
  outer loop
    vertex -3.92452001571659 6.878419876098624 0.0
    vertex -6.349999904632614 5.798520088195745 6.99999990463257
    vertex -3.92452001571659 6.878419876098624 6.99999990463257
  endloop
endfacet
facet normal -0.6691322476549383 0.743143347644484 0.0
  outer loop
    vertex -8.497960090637257 4.237939834594685 6.99999990463257
    vertex -6.349999904632614 5.798520088195745 0.0
    vertex -8.497960090637257 4.237939834594685 0.0
  endloop
endfacet
facet normal -0.5000004280330247 0.8660251566593156 0.0
  outer loop
    vertex -6.349999904632614 5.798520088195745 0.0
    vertex -8.497960090637257 4.237939834594685 6.99999990463257
    vertex -6.349999904632614 5.798520088195745 6.99999990463257
  endloop
endfacet
facet normal -0.6691322476549383 0.743143347644484 0.0
  outer loop
    vertex -8.497960090637257 4.237939834594685 6.99999990463257
    vertex -10.2744998931885 2.264869928359949 0.0
    vertex -10.2744998931885 2.264869928359949 6.99999990463257
  endloop
endfacet
facet normal -0.8090196005364081 0.5877816652022335 0.0
  outer loop
    vertex -10.2744998931885 2.264869928359949 0.0
    vertex -8.497960090637257 4.237939834594685 6.99999990463257
    vertex -8.497960090637257 4.237939834594685 0.0
  endloop
endfacet
facet normal -0.8090196005364081 0.5877816652022335 0.0
  outer loop
    vertex -10.2744998931885 2.264869928359949 6.99999990463257
    vertex -11.602000236511248 -0.03444499894981377 0.0
    vertex -11.602000236511248 -0.03444499894981377 6.99999990463257
  endloop
endfacet
facet normal -0.9135422567732722 0.4067438322698908 0.0
  outer loop
    vertex -11.602000236511248 -0.03444499894981377 0.0
    vertex -10.2744998931885 2.264869928359949 6.99999990463257
    vertex -10.2744998931885 2.264869928359949 0.0
  endloop
endfacet
facet normal -0.9135422567732722 0.4067438322698908 0.0
  outer loop
    vertex -11.602000236511248 -0.03444499894981377 6.99999990463257
    vertex -12.422499656677262 -2.5595200061798375 0.0
    vertex -12.422499656677262 -2.5595200061798375 6.99999990463257
  endloop
endfacet
facet normal -0.9781466253011823 0.207916279814516 0.0
  outer loop
    vertex -12.422499656677262 -2.5595200061798375 0.0
    vertex -11.602000236511248 -0.03444499894981377 6.99999990463257
    vertex -11.602000236511248 -0.03444499894981377 0.0
  endloop
endfacet
facet normal -0.9781466253011823 0.207916279814516 0.0
  outer loop
    vertex -12.422499656677262 -2.5595200061798375 6.99999990463257
    vertex -12.699999809265138 -5.1999998092651785 0.0
    vertex -12.699999809265138 -5.1999998092651785 6.99999990463257
  endloop
endfacet
facet normal -0.9986297842820744 0.052331194757406385 -2.053349573036252e-17
  outer loop
    vertex -12.699999809265138 -5.1999998092651785 0.0
    vertex -12.422499656677262 -2.5595200061798375 6.99999990463257
    vertex -12.422499656677262 -2.5595200061798375 0.0
  endloop
endfacet
facet normal -0.9986297842820744 0.052331194757406385 -2.053349573036252e-17
  outer loop
    vertex -12.699999809265138 -5.1999998092651785 6.99999990463257
    vertex -12.699999809265115 -8.955099693305177 3.99999990463257
    vertex -12.699999809265115 -8.955099693305177 6.99999990463257
  endloop
endfacet
facet normal -1.0 -6.20588947416923e-15 -4.101072082353762e-17
  outer loop
    vertex -12.699999809265115 -8.955099693305177 3.99999990463257
    vertex -12.699999809265025 -23.400001525878945 0.0
    vertex -12.699999809265025 -23.400001525878945 3.99999990463257
  endloop
endfacet
facet normal -1.0 -6.20588947416923e-15 -4.101072082353762e-17
  outer loop
    vertex -12.699999809265025 -23.400001525878945 0.0
    vertex -12.699999809265115 -8.955099693305177 3.99999990463257
    vertex -12.699999809265138 -5.1999998092651785 0.0
  endloop
endfacet
facet normal -0.9986297842820744 0.052331194757406385 -2.053349573036252e-17
  outer loop
    vertex -12.699999809265138 -5.1999998092651785 0.0
    vertex -12.699999809265115 -8.955099693305177 3.99999990463257
    vertex -12.699999809265138 -5.1999998092651785 6.99999990463257
  endloop
endfacet
facet normal -0.0 -0.0 1.0
  outer loop
    vertex -2.8977774788672273 -0.7764571353075654 3.999999904632567
    vertex -2.8977774788672273 0.7764571353075578 3.999999904632567
    vertex -3.000000000000017 -1.127986593019159e-14 3.999999904632567
  endloop
endfacet
facet normal -0.0 -0.0 1.0
  outer loop
    vertex -2.8977774788672273 0.7764571353075578 3.999999904632567
    vertex -2.8977774788672273 -0.7764571353075654 3.999999904632567
    vertex -2.598076211353323 -1.5000000000000255 3.999999904632567
  endloop
endfacet
facet normal -0.0 -0.0 1.0
  outer loop
    vertex -2.8977774788672273 0.7764571353075578 3.999999904632567
    vertex -2.598076211353323 -1.5000000000000255 3.999999904632567
    vertex -2.598076211353323 1.5000000000000093 3.999999904632567
  endloop
endfacet
facet normal -0.0 -0.0 1.0
  outer loop
    vertex -2.598076211353323 1.5000000000000093 3.999999904632567
    vertex -2.598076211353323 -1.5000000000000255 3.999999904632567
    vertex -2.1213203435596704 -2.1213203435596535 3.999999904632567
  endloop
endfacet
facet normal -0.0 -0.0 1.0
  outer loop
    vertex -2.598076211353323 1.5000000000000093 3.999999904632567
    vertex -2.1213203435596704 -2.1213203435596535 3.999999904632567
    vertex -2.1213203435596477 2.1213203435596375 3.999999904632567
  endloop
endfacet
facet normal -0.0 -0.0 1.0
  outer loop
    vertex -2.1213203435596477 2.1213203435596375 3.999999904632567
    vertex -2.1213203435596704 -2.1213203435596535 3.999999904632567
    vertex -1.4999999999999973 -2.598076211353306 3.999999904632567
  endloop
endfacet
facet normal -0.0 -0.0 1.0
  outer loop
    vertex -2.1213203435596477 2.1213203435596375 3.999999904632567
    vertex -1.4999999999999973 -2.598076211353306 3.999999904632567
    vertex -1.7000000000000195 -1.127986593019159e-14 3.999999904632567
  endloop
endfacet
facet normal -0.0 -0.0 1.0
  outer loop
    vertex -1.7000000000000195 -1.127986593019159e-14 3.999999904632567
    vertex -1.4999999999999973 -2.598076211353306 3.999999904632567
    vertex -1.6420739046914237 -0.4399923766742712 3.999999904632567
  endloop
endfacet
facet normal -0.0 -0.0 1.0
  outer loop
    vertex -1.6420739046914237 -0.4399923766742712 3.999999904632567
    vertex -1.4999999999999973 -2.598076211353306 3.999999904632567
    vertex -1.4722431864335417 -0.8499999999999843 3.999999904632567
  endloop
endfacet
facet normal -0.0 -0.0 1.0
  outer loop
    vertex -1.4722431864335417 -0.8499999999999843 3.999999904632567
    vertex -1.4999999999999973 -2.598076211353306 3.999999904632567
    vertex -0.7764571353075795 -2.897777478867199 3.999999904632567
  endloop
endfacet
facet normal -0.0 -0.0 1.0
  outer loop
    vertex -1.4722431864335417 -0.8499999999999843 3.999999904632567
    vertex -0.7764571353075795 -2.897777478867199 3.999999904632567
    vertex -1.2020815280171384 -1.2020815280171326 3.999999904632567
  endloop
endfacet
facet normal -0.0 -0.0 1.0
  outer loop
    vertex -1.2020815280171384 -1.2020815280171326 3.999999904632567
    vertex -0.7764571353075795 -2.897777478867199 3.999999904632567
    vertex -0.8500000000000097 -1.472243186433536 3.999999904632567
  endloop
endfacet
facet normal -0.0 -0.0 1.0
  outer loop
    vertex -0.8500000000000097 -1.472243186433536 3.999999904632567
    vertex -0.7764571353075795 -2.897777478867199 3.999999904632567
    vertex -0.4399923766742853 -1.6420739046914068 3.999999904632567
  endloop
endfacet
facet normal -0.0 -0.0 1.0
  outer loop
    vertex -0.4399923766742853 -1.6420739046914068 3.999999904632567
    vertex -0.7764571353075795 -2.897777478867199 3.999999904632567
    vertex 0.0 -3.0 3.999999904632567
  endloop
endfacet
facet normal -0.0 -0.0 1.0
  outer loop
    vertex -0.4399923766742853 -1.6420739046914068 3.999999904632567
    vertex 0.0 -3.0 3.999999904632567
    vertex 0.0 -1.700000000000025 3.999999904632567
  endloop
endfacet
facet normal -0.0 -0.0 1.0
  outer loop
    vertex 0.0 -1.700000000000025 3.999999904632567
    vertex 0.0 -3.0 3.999999904632567
    vertex 0.7764571353075342 -2.8977774788672104 3.999999904632567
  endloop
endfacet
facet normal -0.0 -0.0 1.0
  outer loop
    vertex 0.0 -1.700000000000025 3.999999904632567
    vertex 0.7764571353075342 -2.8977774788672104 3.999999904632567
    vertex 0.4399923766742853 -1.6420739046914068 3.999999904632567
  endloop
endfacet
facet normal -0.0 -0.0 1.0
  outer loop
    vertex 0.4399923766742853 -1.6420739046914068 3.999999904632567
    vertex 0.7764571353075342 -2.8977774788672104 3.999999904632567
    vertex 0.8500000000000095 -1.4722431864335472 3.999999904632567
  endloop
endfacet
facet normal -0.0 -0.0 1.0
  outer loop
    vertex 0.8500000000000095 -1.4722431864335472 3.999999904632567
    vertex 0.7764571353075342 -2.8977774788672104 3.999999904632567
    vertex 1.4999999999999984 -2.598076211353306 3.999999904632567
  endloop
endfacet
facet normal -0.0 -0.0 1.0
  outer loop
    vertex 0.8500000000000095 -1.4722431864335472 3.999999904632567
    vertex 1.4999999999999984 -2.598076211353306 3.999999904632567
    vertex 1.2020815280171169 -1.2020815280171326 3.999999904632567
  endloop
endfacet
facet normal -0.0 -0.0 1.0
  outer loop
    vertex 1.2020815280171169 -1.2020815280171326 3.999999904632567
    vertex 1.4999999999999984 -2.598076211353306 3.999999904632567
    vertex 1.4722431864335428 -0.8499999999999956 3.999999904632567
  endloop
endfacet
facet normal -0.0 -0.0 1.0
  outer loop
    vertex 1.4722431864335428 -0.8499999999999956 3.999999904632567
    vertex 1.4999999999999984 -2.598076211353306 3.999999904632567
    vertex 1.642073904691404 -0.4399923766743276 3.999999904632567
  endloop
endfacet
facet normal -0.0 -0.0 1.0
  outer loop
    vertex 1.642073904691404 -0.4399923766743276 3.999999904632567
    vertex 1.4999999999999984 -2.598076211353306 3.999999904632567
    vertex 2.121320343559628 -2.1213203435596535 3.999999904632567
  endloop
endfacet
facet normal -0.0 -0.0 1.0
  outer loop
    vertex 1.642073904691404 -0.4399923766743276 3.999999904632567
    vertex 2.121320343559628 -2.1213203435596535 3.999999904632567
    vertex 1.6999999999999997 -1.127986593019159e-14 3.999999904632567
  endloop
endfacet
facet normal -0.0 -0.0 1.0
  outer loop
    vertex -1.7000000000000195 -1.127986593019159e-14 3.999999904632567
    vertex -1.50000000000002 2.5980762113532676 3.999999904632567
    vertex -2.1213203435596477 2.1213203435596375 3.999999904632567
  endloop
endfacet
facet normal -0.0 -0.0 1.0
  outer loop
    vertex -1.50000000000002 2.5980762113532676 3.999999904632567
    vertex -1.7000000000000195 -1.127986593019159e-14 3.999999904632567
    vertex -1.6420739046914237 0.4399923766743079 3.999999904632567
  endloop
endfacet
facet normal -0.0 -0.0 1.0
  outer loop
    vertex -1.50000000000002 2.5980762113532676 3.999999904632567
    vertex -1.6420739046914237 0.4399923766743079 3.999999904632567
    vertex -1.4722431864335643 0.8499999999999766 3.999999904632567
  endloop
endfacet
facet normal -0.0 -0.0 1.0
  outer loop
    vertex -1.50000000000002 2.5980762113532676 3.999999904632567
    vertex -1.4722431864335643 0.8499999999999766 3.999999904632567
    vertex -0.7764571353075795 2.8977774788672055 3.999999904632567
  endloop
endfacet
facet normal -0.0 -0.0 1.0
  outer loop
    vertex -0.7764571353075795 2.8977774788672055 3.999999904632567
    vertex -1.4722431864335643 0.8499999999999766 3.999999904632567
    vertex -1.2020815280171384 1.202081528017128 3.999999904632567
  endloop
endfacet
facet normal -0.0 -0.0 1.0
  outer loop
    vertex -0.7764571353075795 2.8977774788672055 3.999999904632567
    vertex -1.2020815280171384 1.202081528017128 3.999999904632567
    vertex -0.8500000000000323 1.4722431864335424 3.999999904632567
  endloop
endfacet
facet normal -0.0 -0.0 1.0
  outer loop
    vertex -0.7764571353075795 2.8977774788672055 3.999999904632567
    vertex -0.8500000000000323 1.4722431864335424 3.999999904632567
    vertex -0.4399923766743079 1.6420739046913906 3.999999904632567
  endloop
endfacet
facet normal -0.0 -0.0 1.0
  outer loop
    vertex -0.7764571353075795 2.8977774788672055 3.999999904632567
    vertex -0.4399923766743079 1.6420739046913906 3.999999904632567
    vertex 0.0 2.999999999999984 3.999999904632567
  endloop
endfacet
facet normal -0.0 -0.0 1.0
  outer loop
    vertex 0.0 2.999999999999984 3.999999904632567
    vertex -0.4399923766743079 1.6420739046913906 3.999999904632567
    vertex -2.255973186038318e-14 1.7000000000000088 3.999999904632567
  endloop
endfacet
facet normal -0.0 -0.0 1.0
  outer loop
    vertex 0.0 2.999999999999984 3.999999904632567
    vertex -2.255973186038318e-14 1.7000000000000088 3.999999904632567
    vertex 0.4399923766742628 1.6420739046913906 3.999999904632567
  endloop
endfacet
facet normal -0.0 -0.0 1.0
  outer loop
    vertex 0.0 2.999999999999984 3.999999904632567
    vertex 0.4399923766742628 1.6420739046913906 3.999999904632567
    vertex 0.7764571353075342 2.8977774788671944 3.999999904632567
  endloop
endfacet
facet normal -0.0 -0.0 1.0
  outer loop
    vertex 0.7764571353075342 2.8977774788671944 3.999999904632567
    vertex 0.4399923766742628 1.6420739046913906 3.999999904632567
    vertex 0.849999999999987 1.472243186433531 3.999999904632567
  endloop
endfacet
facet normal -0.0 -0.0 1.0
  outer loop
    vertex 0.7764571353075342 2.8977774788671944 3.999999904632567
    vertex 0.849999999999987 1.472243186433531 3.999999904632567
    vertex 1.4999999999999984 2.5980762113532787 3.999999904632567
  endloop
endfacet
facet normal -0.0 -0.0 1.0
  outer loop
    vertex 1.4999999999999984 2.5980762113532787 3.999999904632567
    vertex 0.849999999999987 1.472243186433531 3.999999904632567
    vertex 1.2020815280171169 1.202081528017128 3.999999904632567
  endloop
endfacet
facet normal -0.0 -0.0 1.0
  outer loop
    vertex 1.4999999999999984 2.5980762113532787 3.999999904632567
    vertex 1.2020815280171169 1.202081528017128 3.999999904632567
    vertex 1.4722431864335201 0.8499999999999766 3.999999904632567
  endloop
endfacet
facet normal -0.0 -0.0 1.0
  outer loop
    vertex 1.4999999999999984 2.5980762113532787 3.999999904632567
    vertex 1.4722431864335201 0.8499999999999766 3.999999904632567
    vertex 1.642073904691404 0.4399923766742628 3.999999904632567
  endloop
endfacet
facet normal -0.0 -0.0 1.0
  outer loop
    vertex 1.4999999999999984 2.5980762113532787 3.999999904632567
    vertex 1.642073904691404 0.4399923766742628 3.999999904632567
    vertex 2.121320343559628 2.1213203435596486 3.999999904632567
  endloop
endfacet
facet normal -0.0 -0.0 1.0
  outer loop
    vertex 2.121320343559628 2.1213203435596486 3.999999904632567
    vertex 1.642073904691404 0.4399923766742628 3.999999904632567
    vertex 1.6999999999999997 -1.127986593019159e-14 3.999999904632567
  endloop
endfacet
facet normal -0.0 -0.0 1.0
  outer loop
    vertex 2.121320343559628 2.1213203435596486 3.999999904632567
    vertex 1.6999999999999997 -1.127986593019159e-14 3.999999904632567
    vertex 2.121320343559628 -2.1213203435596535 3.999999904632567
  endloop
endfacet
facet normal -0.0 -0.0 1.0
  outer loop
    vertex 2.121320343559628 2.1213203435596486 3.999999904632567
    vertex 2.121320343559628 -2.1213203435596535 3.999999904632567
    vertex 2.598076211353326 -1.5000000000000255 3.999999904632567
  endloop
endfacet
facet normal -0.0 -0.0 1.0
  outer loop
    vertex 2.121320343559628 2.1213203435596486 3.999999904632567
    vertex 2.598076211353326 -1.5000000000000255 3.999999904632567
    vertex 2.5980762113533036 1.5000000000000093 3.999999904632567
  endloop
endfacet
facet normal -0.0 -0.0 1.0
  outer loop
    vertex 2.5980762113533036 1.5000000000000093 3.999999904632567
    vertex 2.598076211353326 -1.5000000000000255 3.999999904632567
    vertex 2.897777478867185 0.7764571353075578 3.999999904632567
  endloop
endfacet
facet normal -0.0 -0.0 1.0
  outer loop
    vertex 2.897777478867185 0.7764571353075578 3.999999904632567
    vertex 2.598076211353326 -1.5000000000000255 3.999999904632567
    vertex 2.8977774788672077 -0.7764571353075654 3.999999904632567
  endloop
endfacet
facet normal -0.0 -0.0 1.0
  outer loop
    vertex 2.897777478867185 0.7764571353075578 3.999999904632567
    vertex 2.8977774788672077 -0.7764571353075654 3.999999904632567
    vertex 2.9999999999999747 0.0 3.999999904632567
  endloop
endfacet
facet normal 1.0 1.2297331655992716e-15 0.0
  outer loop
    vertex -3.000000000000017 -1.127986593019159e-14 3.999999904632567
    vertex -2.8977774788672273 -0.7764571353075654 6.99999990463257
    vertex -2.8977774788672273 -0.7764571353075654 3.999999904632567
  endloop
endfacet
facet normal 0.9659258262890681 0.25881904510252157 0.0
  outer loop
    vertex -2.8977774788672273 -0.7764571353075654 6.99999990463257
    vertex -3.000000000000017 -1.127986593019159e-14 3.999999904632567
    vertex -3.000000000000017 -1.127986593019159e-14 6.99999990463257
  endloop
endfacet
facet normal 0.9659258262890681 0.25881904510252157 0.0
  outer loop
    vertex -2.8977774788672273 -0.7764571353075654 3.999999904632567
    vertex -2.598076211353323 -1.5000000000000255 6.99999990463257
    vertex -2.598076211353323 -1.5000000000000255 3.999999904632567
  endloop
endfacet
facet normal 0.8660254037844393 0.49999999999999906 0.0
  outer loop
    vertex -2.598076211353323 -1.5000000000000255 6.99999990463257
    vertex -2.8977774788672273 -0.7764571353075654 3.999999904632567
    vertex -2.8977774788672273 -0.7764571353075654 6.99999990463257
  endloop
endfacet
facet normal 0.8660254037844393 0.49999999999999906 0.0
  outer loop
    vertex -2.598076211353323 -1.5000000000000255 3.999999904632567
    vertex -2.1213203435596704 -2.1213203435596535 6.99999990463257
    vertex -2.1213203435596704 -2.1213203435596535 3.999999904632567
  endloop
endfacet
facet normal 0.7071067811865349 0.7071067811865599 0.0
  outer loop
    vertex -2.1213203435596704 -2.1213203435596535 6.99999990463257
    vertex -2.598076211353323 -1.5000000000000255 3.999999904632567
    vertex -2.598076211353323 -1.5000000000000255 6.99999990463257
  endloop
endfacet
facet normal 0.7071067811865349 0.7071067811865599 0.0
  outer loop
    vertex -2.1213203435596704 -2.1213203435596535 6.99999990463257
    vertex -1.4999999999999973 -2.598076211353306 3.999999904632567
    vertex -2.1213203435596704 -2.1213203435596535 3.999999904632567
  endloop
endfacet
facet normal 0.4999999999999867 0.8660254037844461 0.0
  outer loop
    vertex -1.4999999999999973 -2.598076211353306 3.999999904632567
    vertex -2.1213203435596704 -2.1213203435596535 6.99999990463257
    vertex -1.4999999999999973 -2.598076211353306 6.99999990463257
  endloop
endfacet
facet normal 0.4999999999999867 0.8660254037844461 0.0
  outer loop
    vertex -1.4999999999999973 -2.598076211353306 6.99999990463257
    vertex -0.7764571353075795 -2.897777478867199 3.999999904632567
    vertex -1.4999999999999973 -2.598076211353306 3.999999904632567
  endloop
endfacet
facet normal 0.2588190451025299 0.9659258262890658 0.0
  outer loop
    vertex -0.7764571353075795 -2.897777478867199 3.999999904632567
    vertex -1.4999999999999973 -2.598076211353306 6.99999990463257
    vertex -0.7764571353075795 -2.897777478867199 6.99999990463257
  endloop
endfacet
facet normal 0.2588190451025299 0.9659258262890658 0.0
  outer loop
    vertex -0.7764571353075795 -2.897777478867199 6.99999990463257
    vertex 0.0 -3.0 3.999999904632567
    vertex -0.7764571353075795 -2.897777478867199 3.999999904632567
  endloop
endfacet
facet normal 3.3773106504501772e-15 1.0 0.0
  outer loop
    vertex 0.0 -3.0 3.999999904632567
    vertex -0.7764571353075795 -2.897777478867199 6.99999990463257
    vertex 0.0 -3.0 6.99999990463257
  endloop
endfacet
facet normal 3.3773106504501772e-15 1.0 0.0
  outer loop
    vertex 0.0 -3.0 6.99999990463257
    vertex 0.7764571353075342 -2.8977774788672104 3.999999904632567
    vertex 0.0 -3.0 3.999999904632567
  endloop
endfacet
facet normal -0.25881904510252224 0.965925826289068 0.0
  outer loop
    vertex 0.7764571353075342 -2.8977774788672104 3.999999904632567
    vertex 0.0 -3.0 6.99999990463257
    vertex 0.7764571353075342 -2.8977774788672104 6.99999990463257
  endloop
endfacet
facet normal -0.25881904510252224 0.965925826289068 0.0
  outer loop
    vertex 0.7764571353075342 -2.8977774788672104 6.99999990463257
    vertex 1.4999999999999984 -2.598076211353306 3.999999904632567
    vertex 0.7764571353075342 -2.8977774788672104 3.999999904632567
  endloop
endfacet
facet normal -0.49999999999999745 0.8660254037844402 0.0
  outer loop
    vertex 1.4999999999999984 -2.598076211353306 3.999999904632567
    vertex 0.7764571353075342 -2.8977774788672104 6.99999990463257
    vertex 1.4999999999999984 -2.598076211353306 6.99999990463257
  endloop
endfacet
facet normal -0.49999999999999745 0.8660254037844402 0.0
  outer loop
    vertex 1.4999999999999984 -2.598076211353306 6.99999990463257
    vertex 2.121320343559628 -2.1213203435596535 3.999999904632567
    vertex 1.4999999999999984 -2.598076211353306 3.999999904632567
  endloop
endfacet
facet normal -0.7071067811865309 0.7071067811865643 0.0
  outer loop
    vertex 2.121320343559628 -2.1213203435596535 3.999999904632567
    vertex 1.4999999999999984 -2.598076211353306 6.99999990463257
    vertex 2.121320343559628 -2.1213203435596535 6.99999990463257
  endloop
endfacet
facet normal -0.8660254037844345 0.5000000000000073 0.0
  outer loop
    vertex 2.598076211353326 -1.5000000000000255 6.99999990463257
    vertex 2.121320343559628 -2.1213203435596535 3.999999904632567
    vertex 2.121320343559628 -2.1213203435596535 6.99999990463257
  endloop
endfacet
facet normal -0.7071067811865309 0.7071067811865643 0.0
  outer loop
    vertex 2.121320343559628 -2.1213203435596535 3.999999904632567
    vertex 2.598076211353326 -1.5000000000000255 6.99999990463257
    vertex 2.598076211353326 -1.5000000000000255 3.999999904632567
  endloop
endfacet
facet normal -0.9659258262890754 0.258819045102494 0.0
  outer loop
    vertex 2.8977774788672077 -0.7764571353075654 6.99999990463257
    vertex 2.598076211353326 -1.5000000000000255 3.999999904632567
    vertex 2.598076211353326 -1.5000000000000255 6.99999990463257
  endloop
endfacet
facet normal -0.8660254037844345 0.5000000000000073 0.0
  outer loop
    vertex 2.598076211353326 -1.5000000000000255 3.999999904632567
    vertex 2.8977774788672077 -0.7764571353075654 6.99999990463257
    vertex 2.8977774788672077 -0.7764571353075654 3.999999904632567
  endloop
endfacet
facet normal -1.0 -1.4926109075208524e-14 0.0
  outer loop
    vertex 2.9999999999999747 0.0 6.99999990463257
    vertex 2.8977774788672077 -0.7764571353075654 3.999999904632567
    vertex 2.8977774788672077 -0.7764571353075654 6.99999990463257
  endloop
endfacet
facet normal -0.9659258262890754 0.258819045102494 0.0
  outer loop
    vertex 2.8977774788672077 -0.7764571353075654 3.999999904632567
    vertex 2.9999999999999747 0.0 6.99999990463257
    vertex 2.9999999999999747 0.0 3.999999904632567
  endloop
endfacet
facet normal -0.9659258262890712 -0.25881904510251036 0.0
  outer loop
    vertex 2.897777478867185 0.7764571353075578 6.99999990463257
    vertex 2.9999999999999747 0.0 3.999999904632567
    vertex 2.9999999999999747 0.0 6.99999990463257
  endloop
endfacet
facet normal -1.0 -1.4926109075208524e-14 0.0
  outer loop
    vertex 2.9999999999999747 0.0 3.999999904632567
    vertex 2.897777478867185 0.7764571353075578 6.99999990463257
    vertex 2.897777478867185 0.7764571353075578 3.999999904632567
  endloop
endfacet
facet normal -0.8660254037844415 -0.4999999999999954 0.0
  outer loop
    vertex 2.5980762113533036 1.5000000000000093 6.99999990463257
    vertex 2.897777478867185 0.7764571353075578 3.999999904632567
    vertex 2.897777478867185 0.7764571353075578 6.99999990463257
  endloop
endfacet
facet normal -0.9659258262890712 -0.25881904510251036 0.0
  outer loop
    vertex 2.897777478867185 0.7764571353075578 3.999999904632567
    vertex 2.5980762113533036 1.5000000000000093 6.99999990463257
    vertex 2.5980762113533036 1.5000000000000093 3.999999904632567
  endloop
endfacet
facet normal -0.7071067811865338 -0.7071067811865611 0.0
  outer loop
    vertex 2.121320343559628 2.1213203435596486 6.99999990463257
    vertex 2.5980762113533036 1.5000000000000093 3.999999904632567
    vertex 2.5980762113533036 1.5000000000000093 6.99999990463257
  endloop
endfacet
facet normal -0.8660254037844415 -0.4999999999999954 0.0
  outer loop
    vertex 2.5980762113533036 1.5000000000000093 3.999999904632567
    vertex 2.121320343559628 2.1213203435596486 6.99999990463257
    vertex 2.121320343559628 2.1213203435596486 3.999999904632567
  endloop
endfacet
facet normal -0.7071067811865338 -0.7071067811865611 0.0
  outer loop
    vertex 2.121320343559628 2.1213203435596486 6.99999990463257
    vertex 1.4999999999999984 2.5980762113532787 3.999999904632567
    vertex 2.121320343559628 2.1213203435596486 3.999999904632567
  endloop
endfacet
facet normal -0.4999999999999934 -0.8660254037844425 0.0
  outer loop
    vertex 1.4999999999999984 2.5980762113532787 3.999999904632567
    vertex 2.121320343559628 2.1213203435596486 6.99999990463257
    vertex 1.4999999999999984 2.5980762113532787 6.99999990463257
  endloop
endfacet
facet normal -0.4999999999999934 -0.8660254037844425 0.0
  outer loop
    vertex 1.4999999999999984 2.5980762113532787 6.99999990463257
    vertex 0.7764571353075342 2.8977774788671944 3.999999904632567
    vertex 1.4999999999999984 2.5980762113532787 3.999999904632567
  endloop
endfacet
facet normal -0.2588190451025286 -0.9659258262890662 0.0
  outer loop
    vertex 0.7764571353075342 2.8977774788671944 3.999999904632567
    vertex 1.4999999999999984 2.5980762113532787 6.99999990463257
    vertex 0.7764571353075342 2.8977774788671944 6.99999990463257
  endloop
endfacet
facet normal -0.2588190451025286 -0.9659258262890662 0.0
  outer loop
    vertex 0.7764571353075342 2.8977774788671944 6.99999990463257
    vertex 0.0 2.999999999999984 3.999999904632567
    vertex 0.7764571353075342 2.8977774788671944 3.999999904632567
  endloop
endfacet
facet normal -1.0898287402376144e-14 -0.9999999999999999 0.0
  outer loop
    vertex 0.0 2.999999999999984 3.999999904632567
    vertex 0.7764571353075342 2.8977774788671944 6.99999990463257
    vertex 0.0 2.999999999999984 6.99999990463257
  endloop
endfacet
facet normal -1.0898287402376144e-14 -0.9999999999999999 0.0
  outer loop
    vertex 0.0 2.999999999999984 6.99999990463257
    vertex -0.7764571353075795 2.8977774788672055 3.999999904632567
    vertex 0.0 2.999999999999984 3.999999904632567
  endloop
endfacet
facet normal 0.25881904510253656 -0.9659258262890641 0.0
  outer loop
    vertex -0.7764571353075795 2.8977774788672055 3.999999904632567
    vertex 0.0 2.999999999999984 6.99999990463257
    vertex -0.7764571353075795 2.8977774788672055 6.99999990463257
  endloop
endfacet
facet normal 0.25881904510253656 -0.9659258262890641 0.0
  outer loop
    vertex -0.7764571353075795 2.8977774788672055 6.99999990463257
    vertex -1.50000000000002 2.5980762113532676 3.999999904632567
    vertex -0.7764571353075795 2.8977774788672055 3.999999904632567
  endloop
endfacet
facet normal 0.5000000000000107 -0.8660254037844326 0.0
  outer loop
    vertex -1.50000000000002 2.5980762113532676 3.999999904632567
    vertex -0.7764571353075795 2.8977774788672055 6.99999990463257
    vertex -1.50000000000002 2.5980762113532676 6.99999990463257
  endloop
endfacet
facet normal 0.5000000000000107 -0.8660254037844326 0.0
  outer loop
    vertex -1.50000000000002 2.5980762113532676 6.99999990463257
    vertex -2.1213203435596477 2.1213203435596375 3.999999904632567
    vertex -1.50000000000002 2.5980762113532676 3.999999904632567
  endloop
endfacet
facet normal 0.7071067811865314 -0.7071067811865638 0.0
  outer loop
    vertex -2.1213203435596477 2.1213203435596375 3.999999904632567
    vertex -1.50000000000002 2.5980762113532676 6.99999990463257
    vertex -2.1213203435596477 2.1213203435596375 6.99999990463257
  endloop
endfacet
facet normal 0.7071067811865314 -0.7071067811865638 0.0
  outer loop
    vertex -2.1213203435596477 2.1213203435596375 3.999999904632567
    vertex -2.598076211353323 1.5000000000000093 6.99999990463257
    vertex -2.598076211353323 1.5000000000000093 3.999999904632567
  endloop
endfacet
facet normal 0.8660254037844325 -0.5000000000000107 0.0
  outer loop
    vertex -2.598076211353323 1.5000000000000093 6.99999990463257
    vertex -2.1213203435596477 2.1213203435596375 3.999999904632567
    vertex -2.1213203435596477 2.1213203435596375 6.99999990463257
  endloop
endfacet
facet normal 0.8660254037844325 -0.5000000000000107 0.0
  outer loop
    vertex -2.598076211353323 1.5000000000000093 3.999999904632567
    vertex -2.8977774788672273 0.7764571353075578 6.99999990463257
    vertex -2.8977774788672273 0.7764571353075578 3.999999904632567
  endloop
endfacet
facet normal 0.9659258262890679 -0.2588190451025223 0.0
  outer loop
    vertex -2.8977774788672273 0.7764571353075578 6.99999990463257
    vertex -2.598076211353323 1.5000000000000093 3.999999904632567
    vertex -2.598076211353323 1.5000000000000093 6.99999990463257
  endloop
endfacet
facet normal 0.9659258262890679 -0.2588190451025223 0.0
  outer loop
    vertex -2.8977774788672273 0.7764571353075578 3.999999904632567
    vertex -3.000000000000017 -1.127986593019159e-14 6.99999990463257
    vertex -3.000000000000017 -1.127986593019159e-14 3.999999904632567
  endloop
endfacet
facet normal 1.0 1.2297331655992716e-15 0.0
  outer loop
    vertex -3.000000000000017 -1.127986593019159e-14 6.99999990463257
    vertex -2.8977774788672273 0.7764571353075578 3.999999904632567
    vertex -2.8977774788672273 0.7764571353075578 6.99999990463257
  endloop
endfacet
endsolid Glass_tabs
